<svg width="702" height="612" viewBox="0 0 702 612" fill="none" xmlns="http://www.w3.org/2000/svg">
<g clip-path="url(#clip0_193_3903)">
<path d="M0 37V612" stroke="white" stroke-linecap="round" stroke-linejoin="round"/>
<path d="M54 37V612" stroke="white" stroke-linecap="round" stroke-linejoin="round"/>
<path d="M108 37V612" stroke="white" stroke-linecap="round" stroke-linejoin="round"/>
<path d="M162 37V612" stroke="white" stroke-linecap="round" stroke-linejoin="round"/>
<path d="M216 37V612" stroke="white" stroke-linecap="round" stroke-linejoin="round"/>
<path d="M270 37V612" stroke="white" stroke-linecap="round" stroke-linejoin="round"/>
<path d="M324 37V612" stroke="white" stroke-linecap="round" stroke-linejoin="round"/>
<path d="M378 37V612" stroke="white" stroke-linecap="round" stroke-linejoin="round"/>
<path d="M432 37V612" stroke="white" stroke-linecap="round" stroke-linejoin="round"/>
<path d="M486 37V612" stroke="white" stroke-linecap="round" stroke-linejoin="round"/>
<path d="M540 37V612" stroke="white" stroke-linecap="round" stroke-linejoin="round"/>
<path d="M594 37V612" stroke="white" stroke-linecap="round" stroke-linejoin="round"/>
<path d="M648 37V612" stroke="white" stroke-linecap="round" stroke-linejoin="round"/>
<path d="M702 37V612" stroke="white" stroke-linecap="round" stroke-linejoin="round"/>
<path d="M0 612L702 612" stroke="white" stroke-linecap="round" stroke-linejoin="round"/>
<path d="M0 544L702 544" stroke="white" stroke-linecap="round" stroke-linejoin="round"/>
<path d="M0 476L702 476" stroke="white" stroke-linecap="round" stroke-linejoin="round"/>
<path d="M0 408L702 408" stroke="white" stroke-linecap="round" stroke-linejoin="round"/>
<path d="M0 340L702 340" stroke="white" stroke-linecap="round" stroke-linejoin="round"/>
<path d="M0 272L702 272" stroke="white" stroke-linecap="round" stroke-linejoin="round"/>
<path d="M0 204L702 204" stroke="white" stroke-linecap="round" stroke-linejoin="round"/>
<path d="M0 136L702 136" stroke="white" stroke-linecap="round" stroke-linejoin="round"/>
<path d="M0 68L702 67.9999" stroke="white" stroke-linecap="round" stroke-linejoin="round"/>
<path d="M0 0L702 -6.13708e-05" stroke="white" stroke-linecap="round" stroke-linejoin="round"/>
</g>
<defs>
<clipPath id="clip0_193_3903">
<rect width="702" height="612" fill="white"/>
</clipPath>
</defs>
</svg>
